<?xml version="1.0" standalone="no"?>
<!DOCTYPE svg PUBLIC "-//W3C//DTD SVG 20010904//EN"
 "http://www.w3.org/TR/2001/REC-SVG-20010904/DTD/svg10.dtd">
<svg version="1.0" xmlns="http://www.w3.org/2000/svg"
 width="360.000000pt" height="360.000000pt" viewBox="0 0 360.000000 360.000000"
 preserveAspectRatio="xMidYMid meet">

<g transform="translate(0.000000,360.000000) scale(0.100000,-0.100000)"
fill="#000000" stroke="none">
<path d="M1630 2834 c-14 -2 -65 -9 -115 -15 -133 -16 -264 -44 -410 -88 -297
-90 -469 -192 -534 -318 -27 -53 -38 -103 -51 -219 -12 -111 0 -195 39 -288
26 -59 26 -60 -1 -44 -37 21 -232 17 -291 -5 -47 -19 -68 -41 -60 -64 6 -17
54 -16 118 2 35 11 83 15 141 13 85 -3 88 -4 94 -28 5 -21 12 -25 40 -25 27 0
35 -5 38 -20 8 -39 23 -47 73 -40 43 6 53 3 93 -24 24 -17 49 -31 54 -31 6 0
20 -16 31 -36 15 -25 26 -34 37 -30 49 19 59 17 92 -19 36 -38 58 -43 100 -21
25 13 41 11 147 -10 320 -66 573 -89 884 -81 297 7 472 40 711 134 244 96 492
261 519 346 20 65 23 123 8 153 -61 117 -289 181 -687 193 l-215 6 44 24 c25
13 74 34 110 48 36 13 86 38 111 55 39 27 68 35 210 60 202 35 277 55 262 70
-8 8 -54 8 -169 -1 -87 -7 -168 -15 -180 -18 -21 -5 -23 -1 -23 30 0 19 -2 42
-5 50 -4 10 24 32 92 72 122 72 205 133 198 145 -6 10 -48 -5 -240 -87 -119
-51 -132 -55 -160 -43 -153 62 -275 96 -475 130 -99 18 -174 23 -365 25 -132
2 -251 2 -265 -1z m440 -15 c224 -20 491 -79 615 -135 l60 -27 -50 -22 c-27
-13 -128 -59 -223 -104 l-173 -82 -312 -39 c-187 -24 -330 -38 -357 -34 -35 4
-67 -2 -150 -30 -58 -19 -138 -41 -178 -48 -39 -6 -72 -15 -72 -19 0 -11 48
-42 100 -65 73 -31 149 -25 245 21 72 34 97 40 255 61 96 12 177 20 179 18 2
-2 -7 -8 -20 -13 -24 -9 -311 -148 -496 -239 -122 -60 -231 -80 -340 -60 -40
7 -74 4 -154 -12 -57 -12 -108 -25 -114 -30 -5 -5 -36 -34 -68 -64 -70 -67
-92 -70 -145 -21 -120 107 -167 359 -97 512 64 141 266 259 593 348 305 83
611 111 902 84z m999 -53 c-11 -10 -262 -157 -296 -173 -21 -11 -105 -57 -188
-105 -143 -81 -405 -224 -657 -357 l-118 -62 0 30 c0 18 -9 40 -21 52 -11 11
-19 22 -17 25 4 3 307 150 462 223 234 111 410 192 581 268 105 46 204 90 220
97 26 12 46 13 34 2z m-236 -223 c-4 -22 -11 -33 -22 -33 -14 0 -14 2 -1 10 8
5 11 10 7 10 -4 0 -18 -6 -30 -14 -19 -12 -158 -33 -146 -22 2 2 44 27 94 55
96 55 107 54 98 -6z m295 -28 c-11 -11 -574 -106 -621 -105 -15 1 -5 10 33 29
47 24 79 31 215 45 336 36 382 40 373 31z m-368 -94 c0 -5 -12 -12 -26 -15
-15 -4 -33 -14 -41 -21 -8 -8 -21 -15 -30 -15 -14 0 -14 2 -1 23 13 19 28 25
91 36 4 0 7 -3 7 -8z m-545 -9 c-31 -26 -158 -71 -217 -77 -72 -8 -68 -9 -72
38 -1 8 38 17 124 28 151 20 177 21 165 11z m435 -8 c0 -24 -57 -74 -85 -74
-8 0 26 64 39 72 13 9 46 10 46 2z m-95 -54 c-11 -21 -32 -38 -62 -51 -88 -37
-72 19 20 71 57 32 67 28 42 -20z m-75 22 c-64 -44 -78 -82 -37 -103 14 -9 90
-14 222 -16 448 -8 715 -90 715 -220 0 -44 -51 -96 -180 -181 -197 -132 -438
-228 -695 -278 -133 -26 -155 -28 -430 -28 -309 0 -408 9 -695 60 -171 31
-194 40 -125 49 110 14 119 17 157 55 35 34 38 42 38 93 l0 55 318 168 c174
92 391 208 482 257 143 78 200 103 245 105 6 1 -1 -7 -15 -16z m-570 -20 c0
-23 -5 -28 -26 -30 -15 -1 -54 -6 -88 -12 -33 -5 -76 -10 -93 -10 -28 0 -33 4
-33 25 0 26 1 27 130 44 110 15 110 14 110 -17z m-262 6 c7 -7 12 -26 12 -42
0 -29 -5 -33 -93 -70 -83 -34 -98 -38 -152 -33 -68 6 -97 15 -90 27 3 4 -11
11 -30 14 -43 8 -56 26 -18 26 37 0 196 43 253 69 52 23 101 26 118 9z m131
-212 c6 -8 14 -29 16 -48 5 -40 28 -23 -217 -152 -125 -66 -128 -67 -128 -42
0 13 -12 39 -26 56 -15 17 -25 32 -23 34 17 16 329 165 345 165 12 1 27 -5 33
-13z m-1194 -185 c9 -19 30 -48 46 -65 25 -27 27 -32 11 -38 -9 -4 -22 -7 -28
-7 -23 -2 -85 170 -83 229 1 17 7 6 18 -30 10 -30 26 -70 36 -89z m808 9 c32
-28 55 -80 36 -80 -5 0 -9 4 -9 10 0 5 -18 23 -40 39 -21 15 -36 32 -32 36 4
5 -1 5 -11 2 -26 -10 -46 4 -21 14 32 13 42 10 77 -21z m-308 10 c10 -16 -58
-81 -100 -96 -22 -7 -41 -12 -43 -10 -1 2 20 29 49 60 48 53 80 69 94 46z m23
-35 c-61 -59 -85 -58 -28 0 24 25 51 45 60 45 9 0 -3 -18 -32 -45z m-178 -48
c-78 -76 -70 -58 14 30 27 29 52 50 55 47 3 -2 -28 -37 -69 -77z m270 75 c0
-10 -54 -42 -71 -42 -7 0 -3 10 11 25 22 24 60 34 60 17z m-302 -74 c-35 -40
-83 -99 -106 -130 -33 -46 -48 -58 -69 -58 l-27 0 38 39 c21 22 36 44 32 49
-11 18 119 162 146 162 7 0 -14 -26 -48 -58 -33 -31 -69 -68 -80 -82 -10 -14
23 15 74 63 51 48 96 87 99 87 3 0 -23 -33 -59 -72z m402 67 c0 -3 -22 -19
-50 -36 -27 -17 -50 -33 -50 -35 0 -6 32 11 83 43 41 26 64 24 31 -3 -18 -14
-18 -15 4 -4 29 14 58 5 78 -25 20 -31 16 -36 -51 -74 -30 -17 -55 -33 -55
-36 0 -8 61 24 97 51 34 26 43 29 43 15 0 -18 -122 -102 -196 -135 -99 -43
-156 -53 -173 -32 -11 13 -10 17 5 22 33 10 114 47 111 50 -2 2 -34 -8 -73
-21 -38 -14 -65 -25 -61 -25 4 0 -6 -15 -23 -32 -17 -18 -40 -48 -53 -65 -12
-18 -28 -33 -34 -33 -14 0 32 80 68 119 18 19 19 25 8 32 -8 5 -19 13 -25 17
-15 10 -64 77 -64 88 0 5 30 15 66 22 36 7 114 32 173 56 99 41 141 53 141 41z
m2070 -30 c0 -44 -207 -198 -380 -283 -290 -143 -635 -212 -990 -198 -185 8
-334 17 -339 22 -3 2 1 10 7 16 23 23 12 31 -12 9 -24 -22 -26 -23 -115 -10
-50 7 -91 17 -91 22 0 4 -5 5 -10 2 -16 -10 -100 6 -100 19 0 20 48 59 64 53
9 -4 80 -15 158 -26 190 -27 486 -44 628 -37 125 6 285 22 297 29 5 3 32 8 61
11 30 3 58 8 62 11 5 3 55 19 111 36 94 28 146 47 269 101 55 24 52 22 180
102 58 36 123 81 145 100 45 39 55 43 55 21z m-2957 -91 c1 -4 -6 -8 -15 -10
-21 -3 -23 7 -6 24 12 12 15 9 21 -14z m57 15 c0 -5 6 -7 13 -3 9 5 9 4 0 -6
-7 -8 -21 -14 -32 -15 -16 -1 -17 1 -8 17 13 20 27 24 27 7z m-126 -11 c-5 -8
-2 -9 10 -5 14 6 15 3 6 -13 -13 -25 -32 -27 -23 -2 6 15 5 16 -13 2 -19 -14
-19 -14 0 8 20 23 32 30 20 10z m-79 -29 c-20 -18 -38 -29 -41 -26 -9 9 43 57
61 57 10 0 3 -11 -20 -31z m291 19 c4 -7 4 -10 -1 -6 -4 4 -14 3 -22 -4 -15
-12 -28 -5 -18 11 9 15 32 14 41 -1z m66 -7 c12 6 18 6 18 -1 0 -5 -4 -10 -10
-10 -5 0 -15 -10 -21 -22 -9 -18 -4 -16 23 10 31 29 68 43 68 25 0 -5 -13 -22
-28 -39 -25 -29 -30 -31 -61 -22 -25 7 -31 12 -22 21 16 16 14 32 -2 18 -18
-14 -30 -2 -15 16 7 9 15 10 21 4 7 -7 16 -7 29 0z m108 -9 c0 -4 -16 -24 -37
-43 l-36 -34 29 42 c27 40 44 53 44 35z m154 -36 c-16 -19 -35 -37 -43 -41
-15 -6 -8 4 43 62 31 37 31 17 0 -21z m526 -56 c-29 -37 -65 -58 -77 -46 -3 3
19 35 48 72 50 62 54 64 57 40 2 -18 -7 -39 -28 -66z m-480 66 c0 -7 -9 -25
-20 -39 -24 -30 -24 -34 -6 -34 8 0 12 5 10 12 -3 6 4 19 15 29 18 16 19 16
17 -1 -1 -12 5 -17 17 -15 22 4 21 -7 -4 -38 -48 -60 -59 -82 -20 -40 46 49
45 41 -2 -29 -29 -43 -31 -44 -39 -21 -6 16 -4 30 7 46 17 27 19 38 5 29 -5
-3 -7 0 -4 8 4 12 -2 14 -30 10 -20 -2 -36 -2 -36 2 0 11 72 95 81 95 5 0 9
-6 9 -14z m-227 -43 c-15 -21 -28 -40 -30 -42 -2 -2 -6 -1 -10 2 -6 6 54 77
64 77 2 0 -8 -17 -24 -37z m111 -8 c-14 -19 -29 -35 -31 -35 -5 0 7 18 36 53
26 31 23 18 -5 -18z m559 23 c-53 -70 -78 -98 -86 -98 -5 0 -2 11 7 25 22 33
11 32 -20 -2 l-26 -28 21 31 c11 17 27 37 36 44 13 11 15 10 9 -6 -5 -13 4 -9
27 14 34 33 49 42 32 20z m-151 -97 c-23 -21 -42 -45 -42 -53 0 -17 -44 -60
-79 -78 l-24 -13 24 31 c87 109 116 141 134 150 35 17 30 2 -13 -37z m-360 15
c19 -29 10 -31 -40 -11 -29 13 -34 18 -22 25 17 11 51 3 62 -14z m166 -49
c-13 -19 -31 -34 -40 -34 -19 1 -17 7 26 61 38 46 48 26 14 -27z m101 -22
c-56 -68 -79 -88 -79 -67 0 4 18 34 40 67 34 52 57 70 93 74 5 1 -20 -33 -54
-74z m-57 43 c-7 -7 -12 -17 -12 -22 1 -6 10 0 21 13 35 42 29 17 -9 -38 -20
-29 -38 -47 -40 -41 -2 6 3 19 12 29 23 26 20 37 -5 15 -21 -19 -21 -18 1 19
12 20 27 37 33 37 7 0 7 -4 -1 -12z m246 -55 c48 -7 52 -20 18 -52 l-25 -23
-70 17 c-39 9 -71 19 -71 21 0 2 5 15 12 29 11 25 16 26 53 20 22 -3 59 -9 83
-12z"/>
<path d="M1603 2793 c9 -2 25 -2 35 0 9 3 1 5 -18 5 -19 0 -27 -2 -17 -5z"/>
<path d="M1525 2780 c-25 -11 1 -11 35 0 20 6 21 8 5 8 -11 0 -29 -3 -40 -8z"/>
<path d="M2358 2733 c6 -2 18 -2 25 0 6 3 1 5 -13 5 -14 0 -19 -2 -12 -5z"/>
<path d="M2408 2723 c7 -3 16 -2 19 1 4 3 -2 6 -13 5 -11 0 -14 -3 -6 -6z"/>
<path d="M1898 2639 c-42 -5 -87 -14 -100 -19 -21 -9 -20 -10 7 -5 57 10 263
18 289 11 33 -8 66 -40 66 -64 0 -20 -79 -61 -179 -92 -61 -19 -122 -13 -202
22 -51 22 -65 47 -48 82 10 20 10 21 -5 2 -34 -42 -14 -72 69 -104 81 -32 128
-36 187 -16 88 29 178 72 184 89 11 27 -5 64 -34 79 -37 19 -142 26 -234 15z"/>
<path d="M1300 2574 c-36 -7 -84 -12 -108 -13 -125 -3 -217 -104 -145 -160 54
-43 117 -53 273 -42 124 9 148 14 186 36 46 27 74 59 74 86 0 25 -74 99 -101
100 -89 4 -121 3 -179 -7z m216 -26 c11 -9 27 -30 37 -46 17 -30 17 -31 -8
-60 -39 -46 -79 -59 -205 -66 -103 -5 -113 -4 -96 9 11 8 16 15 12 15 -4 0
-20 -9 -34 -20 -29 -23 -60 -21 -128 10 -82 37 -85 78 -9 123 40 24 69 32 140
39 49 5 92 11 95 14 3 3 44 4 91 2 64 -2 92 -7 105 -20z"/>
<path d="M620 2399 c-12 -23 -20 -43 -18 -45 3 -2 14 17 26 41 27 56 20 60 -8
4z"/>
<path d="M894 2260 c-68 -6 -89 -12 -127 -39 -46 -32 -51 -39 -61 -102 -6 -34
-4 -37 32 -53 32 -15 63 -17 188 -14 139 3 151 5 181 27 40 30 48 49 28 71
-22 24 -19 34 15 47 40 15 38 41 -5 59 -36 15 -112 16 -251 4z m209 -7 c4 -3
2 -12 -5 -21 -10 -14 -9 -14 8 1 20 17 54 15 54 -3 0 -5 -13 -18 -30 -30 -29
-21 -31 -44 -6 -63 7 -5 -1 -18 -22 -37 -33 -30 -59 -40 -46 -17 6 9 3 8 -9
-1 -21 -18 -63 -11 -59 8 3 10 -5 7 -20 -7 -21 -20 -35 -23 -105 -23 -98 0
-159 20 -144 49 6 10 8 27 5 38 -8 31 76 93 127 93 20 0 46 3 56 7 14 5 13 1
-7 -23 l-25 -29 31 28 c17 15 33 25 36 22 3 -3 16 -1 29 4 23 10 116 12 132 4z"/>
<path d="M889 2183 l-34 -38 38 34 c20 19 37 36 37 38 0 8 -8 0 -41 -34z"/>
<path d="M929 2173 l-34 -38 38 34 c34 33 42 41 34 41 -2 0 -19 -17 -38 -37z"/>
<path d="M1014 2138 l-29 -33 33 29 c17 17 32 31 32 33 0 8 -8 1 -36 -29z"/>
<path d="M1019 2103 c-13 -16 -12 -17 4 -4 9 7 17 15 17 17 0 8 -8 3 -21 -13z"/>
<path d="M1700 2240 c-8 -5 -10 -10 -5 -10 6 0 17 5 25 10 8 5 11 10 5 10 -5
0 -17 -5 -25 -10z"/>
<path d="M2778 2223 c7 -3 16 -2 19 1 4 3 -2 6 -13 5 -11 0 -14 -3 -6 -6z"/>
<path d="M2270 2164 c-106 -29 -149 -74 -120 -128 37 -70 259 -107 420 -70 81
18 131 48 145 88 9 25 6 31 -26 61 -27 24 -55 37 -107 49 -87 20 -238 20 -312
0z m363 -36 c49 -23 78 -51 66 -62 -2 -2 -42 3 -89 11 -97 16 -325 12 -343 -6
-6 -6 -21 -11 -34 -11 -13 0 -26 -7 -29 -15 -10 -24 -33 -17 -40 11 -9 35 15
57 91 84 51 17 79 20 190 17 116 -2 136 -6 188 -29z m-16 -69 c71 -12 76 -24
22 -51 -96 -48 -301 -51 -412 -6 -36 14 -21 33 42 52 57 18 259 20 348 5z"/>
<path d="M3232 1962 c-30 -30 -45 -49 -35 -44 21 12 99 90 92 94 -2 2 -28 -21
-57 -50z"/>
<path d="M2627 1889 c-207 -10 -247 -23 -267 -85 -15 -44 -8 -52 51 -62 37 -6
46 -12 58 -40 14 -31 16 -32 75 -32 66 0 149 22 236 63 30 14 76 33 101 41 66
24 87 41 73 62 -35 57 -80 65 -327 53z"/>
<path d="M1970 1879 c-30 -5 -83 -6 -118 -3 -84 8 -292 -21 -299 -42 -4 -12
25 -12 47 0 8 5 -1 -7 -19 -27 -19 -21 -36 -37 -36 -37 -1 0 -2 7 -2 15 0 8 5
11 10 8 6 -4 7 -1 2 7 -6 10 -11 9 -22 -5 -20 -28 -16 -44 12 -55 14 -5 25
-17 25 -28 0 -55 84 -78 277 -74 160 2 237 18 378 75 79 33 83 55 22 115 -62
61 -132 74 -277 51z m-168 -31 c-7 -7 -12 -8 -12 -2 0 6 3 14 7 17 3 4 9 5 12
2 2 -3 -1 -11 -7 -17z m307 -25 c-30 -26 -84 -77 -122 -112 -65 -62 -96 -76
-63 -29 27 39 200 187 220 188 13 0 2 -14 -35 -47z m-301 -70 c-59 -59 -110
-104 -114 -100 -4 4 29 43 72 88 111 115 116 119 133 119 9 0 -32 -48 -91
-107z m-158 90 c0 -5 -13 -17 -28 -27 l-27 -19 24 26 c26 28 31 32 31 20z m12
-46 c-55 -55 -61 -88 -8 -40 17 16 23 19 13 7 -9 -11 -17 -25 -17 -30 0 -5 26
20 58 55 43 48 61 61 67 51 5 -8 4 -11 -2 -7 -6 4 -37 -23 -68 -59 -32 -35
-60 -62 -63 -59 -3 3 -14 -3 -24 -12 -18 -16 -18 -16 -12 2 6 14 4 16 -6 10
-10 -6 -11 -4 -4 6 4 8 9 20 11 28 2 17 83 101 97 101 6 0 -13 -24 -42 -53z
m303 -8 c-33 -33 -69 -65 -80 -71 -11 -5 12 22 51 61 40 39 75 71 80 71 5 0
-18 -27 -51 -61z m249 52 c3 -5 -6 -17 -20 -26 -26 -17 -26 -10 -1 23 11 14
14 15 21 3z m-14 -61 c-34 -43 -101 -102 -108 -95 -4 4 128 134 136 135 2 0
-11 -18 -28 -40z m-240 -25 c-24 -25 -46 -45 -49 -45 -3 0 15 20 39 45 24 25
46 45 49 45 3 0 -15 -20 -39 -45z m-360 16 c-11 -21 -30 -37 -30 -25 0 8 30
44 37 44 2 0 -1 -9 -7 -19z m670 12 c0 -10 -42 -53 -53 -53 -4 0 2 13 15 29
22 29 38 39 38 24z m-200 -58 c-45 -46 -62 -58 -39 -27 29 38 63 72 73 72 6 0
-10 -20 -34 -45z m-240 22 c0 -2 -17 -19 -37 -38 l-38 -34 34 38 c33 34 41 42
41 34z m-140 -20 c0 -2 -12 -14 -27 -28 l-28 -24 24 28 c23 25 31 32 31 24z"/>
<path d="M2298 1573 c7 -3 16 -2 19 1 4 3 -2 6 -13 5 -11 0 -14 -3 -6 -6z"/>
<path d="M2198 1563 c12 -2 30 -2 40 0 9 3 -1 5 -23 4 -22 0 -30 -2 -17 -4z"/>
<path d="M1565 2311 c-33 -16 -55 -29 -50 -29 14 0 132 56 120 57 -5 1 -37
-12 -70 -28z"/>
<path d="M1595 2280 c-3 -6 1 -7 9 -4 18 7 21 14 7 14 -6 0 -13 -4 -16 -10z"/>
<path d="M1033 1940 c-23 -22 -39 -40 -35 -40 5 0 26 18 47 40 50 51 43 51
-12 0z"/>
<path d="M929 1750 c0 -3 -3 -16 -5 -30 -4 -24 -4 -24 13 -8 13 14 14 21 5 30
-7 7 -12 10 -13 8z"/>
<path d="M298 1667 c-48 -25 -101 -50 -118 -55 -38 -14 -48 -37 -25 -62 30
-33 85 -26 177 23 l82 42 124 2 c121 1 152 9 137 33 -6 9 -10 8 -17 -4 -12
-21 -29 -21 -21 1 5 13 2 15 -11 10 -11 -4 -15 -3 -11 4 4 6 13 8 21 5 8 -3
14 -1 14 3 0 17 -66 32 -165 38 l-100 5 -87 -45z m115 10 c-65 -82 -98 -113
-87 -80 4 10 -7 2 -24 -17 -17 -19 -31 -30 -32 -24 0 6 11 21 25 34 14 13 25
28 25 34 0 5 -14 -3 -31 -20 l-31 -29 31 47 c18 26 37 50 42 54 18 11 23 -5 6
-24 -9 -10 -13 -23 -8 -30 5 -8 17 3 39 33 17 25 39 45 48 45 13 0 13 -3 -3
-23z m87 9 c0 -15 -55 -66 -71 -66 -11 0 -6 10 25 53 21 29 46 36 46 13z m100
-4 c0 -13 -32 -39 -57 -46 -27 -9 -28 -3 -7 29 15 24 64 36 64 17z m-169 -19
c-19 -35 -39 -58 -46 -52 -3 4 6 21 20 38 30 34 41 40 26 14z m83 -8 c-9 -14
-19 -23 -22 -20 -5 4 26 45 35 45 2 0 -4 -11 -13 -25z m-256 -64 c-35 -54 -50
-60 -86 -35 -18 13 -21 19 -11 30 14 17 33 19 23 2 -4 -7 4 -3 18 10 37 33 42
27 12 -15 -18 -26 -11 -21 21 15 26 29 50 51 52 48 2 -2 -11 -27 -29 -55z"/>
<path d="M1991 1314 c-35 -43 -61 -117 -61 -175 0 -42 11 -49 89 -55 25 -1 99
-9 164 -15 117 -13 144 -27 78 -40 -48 -10 -59 -25 -33 -46 26 -22 47 -93 28
-93 -19 0 -43 31 -54 70 -10 33 -10 34 -11 7 -2 -46 25 -87 57 -87 15 0 34 5
42 10 13 9 13 11 0 20 -13 9 -13 11 0 20 13 8 13 10 -1 10 -9 0 -21 11 -27 24
-9 21 -8 25 6 29 9 3 4 5 -13 7 -29 1 -30 2 -7 12 32 16 64 -17 71 -74 l6 -43
210 2 c139 2 242 8 305 18 176 31 165 26 168 68 4 52 -22 127 -61 172 -30 35
-36 37 -69 31 -19 -3 -46 -15 -58 -26 -30 -26 -37 -25 -44 5 -7 26 -51 55 -86
55 -11 0 -23 7 -26 15 -3 8 -20 19 -37 24 -63 21 -294 51 -391 51 -77 0 -103
4 -117 16 -10 9 -35 18 -57 21 -36 5 -41 2 -71 -33z m96 20 l23 -6 -26 -28
c-31 -32 -64 -120 -64 -167 0 -36 -10 -40 -54 -23 -17 6 -24 15 -21 28 2 11 6
36 9 56 3 20 15 55 26 76 16 31 26 40 48 41 15 0 21 3 15 6 -7 2 -13 9 -13 14
0 10 25 12 57 3z m83 -37 c0 -1 -9 -19 -19 -40 -10 -20 -25 -67 -32 -103 -12
-58 -15 -65 -33 -60 -12 3 -27 6 -35 6 -20 0 -9 95 19 153 21 44 25 47 61 47
21 0 39 -1 39 -3z m182 -8 c68 -9 88 -15 84 -25 -17 -41 -16 -46 2 -17 19 29
24 31 52 23 37 -11 33 -10 71 -10 l31 0 -25 -29 c-13 -16 -28 -47 -32 -68 -8
-43 -18 -53 -58 -53 -26 0 -27 1 -21 43 4 23 13 53 21 65 8 13 13 26 10 28 -9
9 -47 -83 -47 -114 0 -26 -5 -33 -27 -39 -33 -9 -279 -11 -287 -2 -10 9 22
148 41 180 20 34 42 36 185 18z m296 -55 c30 -21 28 -36 -4 -28 -19 5 -25 4
-20 -5 4 -6 12 -9 17 -6 15 10 10 -5 -11 -35 -12 -17 -32 -29 -51 -32 l-31 -5
5 41 c4 27 15 49 32 63 31 27 34 28 63 7z m85 -34 c8 0 7 -3 -2 -9 -7 -5 -22
-6 -34 -3 -14 3 -18 1 -13 -7 4 -6 12 -9 17 -6 5 4 9 -1 9 -11 0 -11 -6 -15
-20 -11 -11 3 -20 1 -20 -4 0 -5 -4 -9 -10 -9 -17 0 -11 22 12 47 12 13 28 21
36 18 7 -3 19 -5 25 -5z m27 -35 c0 -18 -5 -25 -20 -25 -24 0 -25 8 -3 32 21
23 23 23 23 -7z m144 8 c3 -4 -4 -13 -16 -19 -21 -12 -20 -13 12 -8 34 6 37 4
63 -44 15 -27 30 -70 33 -95 6 -43 5 -45 -26 -56 -18 -6 -34 -11 -35 -11 -1 0
-5 19 -8 43 -8 59 -43 132 -73 156 -19 15 -22 22 -13 25 8 2 21 7 29 9 22 8
26 8 34 0z m-28 -89 c16 -32 28 -74 28 -98 1 -38 -1 -41 -29 -44 -29 -3 -31
-1 -56 75 -14 43 -29 85 -33 95 -5 11 -2 18 11 21 44 11 52 6 79 -49z m-102
23 c19 -28 41 -90 50 -138 8 -46 5 -47 -173 -55 l-131 -7 0 29 c0 48 -18 96
-47 126 -18 19 -22 28 -12 29 23 2 50 7 129 22 118 23 167 22 184 -6z m-298
-64 c22 -33 40 -115 29 -133 -3 -5 -29 -10 -56 -10 l-49 0 15 24 c21 32 11 87
-21 117 -23 22 -24 24 -7 31 35 14 67 4 89 -29z m-96 -1 c15 -12 24 -33 27
-64 5 -41 3 -48 -19 -62 -35 -23 -59 -12 -52 23 4 20 -1 35 -20 58 -23 28 -24
31 -8 46 21 22 44 21 72 -1z"/>
<path d="M2018 1273 c7 -3 16 -2 19 1 4 3 -2 6 -13 5 -11 0 -14 -3 -6 -6z"/>
<path d="M1960 1126 c0 -2 9 -6 20 -9 11 -3 18 -1 14 4 -5 9 -34 13 -34 5z"/>
<path d="M2908 1113 c7 -3 16 -2 19 1 4 3 -2 6 -13 5 -11 0 -14 -3 -6 -6z"/>
<path d="M2955 970 c-16 -7 -17 -9 -3 -9 9 -1 20 4 23 9 7 11 7 11 -20 0z"/>
<path d="M2516 1067 c3 -10 9 -15 12 -12 3 3 0 11 -7 18 -10 9 -11 8 -5 -6z"/>
<path d="M2741 944 c0 -11 3 -14 6 -6 3 7 2 16 -1 19 -3 4 -6 -2 -5 -13z"/>
<path d="M2318 1013 c7 -3 16 -2 19 1 4 3 -2 6 -13 5 -11 0 -14 -3 -6 -6z"/>
</g>
</svg>
